<?xml version="1.0" encoding="UTF-8" standalone="no"?>
<svg
   xmlns:dc="http://purl.org/dc/elements/1.1/"
   xmlns:cc="http://creativecommons.org/ns#"
   xmlns:rdf="http://www.w3.org/1999/02/22-rdf-syntax-ns#"
   xmlns:svg="http://www.w3.org/2000/svg"
   xmlns="http://www.w3.org/2000/svg"
   xmlns:sodipodi="http://sodipodi.sourceforge.net/DTD/sodipodi-0.dtd"
   xmlns:inkscape="http://www.inkscape.org/namespaces/inkscape"
   id="ade8c9af-7e2e-4eda-b5c8-b06129257226"
   data-name="Layer 1"
   width="1838.828"
   height="1481.827"
   viewBox="0 0 1838.828 1481.827"
   version="1.1"
   sodipodi:docname="main.svg"
   inkscape:export-filename="/home/franco/Proyectos/feco/mainimage.png"
   inkscape:export-xdpi="95"
   inkscape:export-ydpi="95"
   inkscape:version="0.92.4 (unknown)">
  <metadata
     id="metadata97">
    <rdf:RDF>
      <cc:Work
         rdf:about="">
        <dc:format>image/svg+xml</dc:format>
        <dc:type
           rdf:resource="http://purl.org/dc/dcmitype/StillImage" />
        <dc:title>web_developer</dc:title>
      </cc:Work>
    </rdf:RDF>
  </metadata>
  <defs
     id="defs95">
    <filter
       inkscape:collect="always"
       style="color-interpolation-filters:sRGB"
       id="filter955"
       x="-0.0081772711"
       width="1.0163544"
       y="-0.050255693"
       height="1.1005114">
      <feGaussianBlur
         inkscape:collect="always"
         stdDeviation="5.5828831"
         id="feGaussianBlur957" />
    </filter>
  </defs>
  <sodipodi:namedview
     pagecolor="#ffffff"
     bordercolor="#666666"
     borderopacity="1"
     objecttolerance="10"
     gridtolerance="10"
     guidetolerance="10"
     inkscape:pageopacity="0"
     inkscape:pageshadow="2"
     inkscape:window-width="1366"
     inkscape:window-height="704"
     id="namedview93"
     showgrid="false"
     inkscape:zoom="0.31248846"
     inkscape:cx="217.09611"
     inkscape:cy="924.39595"
     inkscape:window-x="0"
     inkscape:window-y="27"
     inkscape:window-maximized="1"
     inkscape:current-layer="ade8c9af-7e2e-4eda-b5c8-b06129257226" />
  <title
     id="title2">web_developer</title>
  <rect
     style="opacity:1;fill:#f3f0cd;fill-opacity:1;stroke:none;stroke-width:3.19314981;stroke-miterlimit:4;stroke-dasharray:none;stroke-opacity:1"
     id="rect986-1-9"
     width="846.29669"
     height="1022.026"
     x="-365.95245"
     y="-314.94928"
     transform="rotate(-24.891032)" />
  <rect
     style="opacity:1;fill:#98e2d5;fill-opacity:1;stroke:none;stroke-width:3.19314981;stroke-miterlimit:4;stroke-dasharray:none;stroke-opacity:1"
     id="rect986-1"
     width="846.29669"
     height="1022.026"
     x="-507.19397"
     y="437.35422"
     transform="rotate(-24.891032)" />
  <rect
     style="opacity:1;fill:#036a93;fill-opacity:1;stroke:none;stroke-width:1.84116018;stroke-miterlimit:4;stroke-dasharray:none;stroke-opacity:1"
     id="rect986"
     width="610.96283"
     height="470.66766"
     x="321.90723"
     y="519.64136" />
  <rect
     style="opacity:1;fill:#31a8ae;fill-opacity:1;stroke:none;stroke-width:1.39332855;stroke-miterlimit:4;stroke-dasharray:none;stroke-opacity:1"
     id="rect904"
     width="609.34625"
     height="338.37717"
     x="-1140.5415"
     y="1766.202"
     transform="matrix(1,0,0.82801918,0.56069978,0,0)" />
  <ellipse
     style="opacity:1;fill:#3d4581;fill-opacity:1;stroke:none;stroke-width:2.29984665;stroke-miterlimit:4;stroke-dasharray:none;stroke-opacity:1;filter:url(#filter955)"
     id="path906"
     cx="-1839.8953"
     cy="2162.1482"
     rx="238.13373"
     ry="156.78291"
     transform="matrix(0.99619681,-0.08713161,0.9655145,0.26034929,499.21845,348.98499)" />
  <path
     d="m 643.95252,950.79335 h 36.8414 l 90.78774,-35.5256 c 0,0 64.47245,-26.3153 59.20939,23.6837 -5.26306,49.9991 -14.47341,117.10295 -14.47341,117.10295 0,0 -28.94681,-13.1576 -44.736,-9.2103 -15.78919,3.9473 -5.26306,-80.26155 -5.26306,-80.26155 0,0 -128.9449,61.84085 -140.78678,53.94625 -11.84188,-7.8946 -14.4734,-63.15665 -14.4734,-63.15665 z"
     id="path8"
     inkscape:connector-curvature="0"
     style="fill:#2f2e41" />
  <path
     d="m 643.95252,950.79335 h 36.8414 l 90.78774,-35.5256 c 0,0 64.47245,-26.3153 59.20939,23.6837 -5.26306,49.9991 -14.47341,117.10295 -14.47341,117.10295 0,0 -28.94681,-13.1576 -44.736,-9.2103 -15.78919,3.9473 -5.26306,-80.26155 -5.26306,-80.26155 0,0 -128.9449,61.84085 -140.78678,53.94625 -11.84188,-7.8946 -14.4734,-63.15665 -14.4734,-63.15665 z"
     id="path10"
     inkscape:connector-curvature="0"
     style="opacity:0.1" />
  <path
     d="m 701.99638,835.41935 44.58576,64.0592 103.94537,86.8404 c 0,0 96.0508,22.36795 82.89315,38.15715 -13.15765,15.7892 -93.41926,-15.7892 -93.41926,-15.7892 0,0 -119.73455,-86.84035 -123.68184,-93.41915 -3.94729,-6.5789 -47.36751,-68.4198 -47.36751,-68.4198 z"
     id="path12"
     inkscape:connector-curvature="0"
     style="fill:#a0616a" />
  <path
     d="m 701.99638,835.41935 44.58576,64.0592 103.94537,86.8404 c 0,0 96.0508,22.36795 82.89315,38.15715 -13.15765,15.7892 -93.41926,-15.7892 -93.41926,-15.7892 0,0 -119.73455,-86.84035 -123.68184,-93.41915 -3.94729,-6.5789 -47.36751,-68.4198 -47.36751,-68.4198 z"
     id="path14"
     style="opacity:1;fill:#c28255;fill-opacity:1"
     inkscape:connector-curvature="0" />
  <path
     d="m 675.53087,783.69135 28.94681,56.5778 c 0,0 -6.57882,27.6311 -17.10494,30.2626 -10.52612,2.6315 -55.26209,-34.2099 -55.26209,-34.2099 z"
     id="path16"
     inkscape:connector-curvature="0"
     style="fill:#d0cde1" />
  <path
     d="m 675.53087,783.69135 28.94681,56.5778 c 0,0 -6.57882,27.6311 -17.10494,30.2626 -10.52612,2.6315 -55.26209,-34.2099 -55.26209,-34.2099 z"
     id="path18"
     inkscape:connector-curvature="0"
     style="opacity:0.1;fill:#efefef;fill-opacity:1" />
  <path
     d="m 1028.6696,921.49945 8.5507,35.2715 a 2.20311,2.20311 0 0 1 -0.043,1.1905 l -38.78764,121.21125 a 2.20306,2.20306 0 0 1 -4.28722,-0.4227 l -5.36581,-47.2192 a 2.203,2.203 0 0 1 0.0943,-0.9312 l 35.60277,-109.26365 a 2.20306,2.20306 0 0 1 4.2357,0.1635 z"
     id="path20"
     inkscape:connector-curvature="0"
     style="fill:#2f2e41" />
  <polygon
     points="492.096,682.07 526.306,575.493 534.2,605.756 499.99,716.28 "
     id="polygon22"
     style="fill:#f2f2f2"
     transform="translate(499.21845,348.98499)" />
  <path
     d="m 853.15904,1088.9486 c 1.31577,3.9473 136.83949,-1.3158 138.15525,-2.6316 a 28.56086,28.56086 0 0 0 2.89462,-5.263 c 1.2369,-2.6315 2.36844,-5.2631 2.36844,-5.2631 l -5.26304,-42.6044 -134.208,-4.7631 c 0,0 -3.35527,36.1046 -4.03949,52.6306 -0.17087,4.1709 -0.17087,7.1051 0.0922,7.8946 z"
     id="path24"
     inkscape:connector-curvature="0"
     style="fill:#2f2e41" />
  <polygon
     points="418.413,689.965 474.991,689.965 477.622,726.806 418.413,726.806 "
     id="polygon26"
     style="opacity:0.1"
     transform="translate(499.21845,348.98499)" />
  <polygon
     points="398.677,701.806 399.03,701.736 397.361,717.596 364.467,717.596 364.467,701.806 "
     id="polygon28"
     style="opacity:0.1"
     transform="translate(499.21845,348.98499)" />
  <path
     d="m 853.15904,1088.9486 c 1.31577,3.9473 136.83949,-1.3158 138.15525,-2.6316 a 28.56086,28.56086 0 0 0 2.89462,-5.263 H 853.06685 c -0.1709,4.1709 -0.1709,7.1051 0.0922,7.8946 z"
     id="path30"
     inkscape:connector-curvature="0"
     style="opacity:0.1" />
  <path
     d="m 691.32004,758.69175 c 0,0 -19.73647,34.2099 -23.68376,52.6306 -3.94729,18.4207 -59.20939,-36.8414 -59.20939,-36.8414 l -7.2367,-19.0786 c 0,0 51.97268,-24.3416 48.02539,-44.0781 -3.94729,-19.7364 42.10446,47.3675 42.10446,47.3675 z"
     id="path34"
     style="fill:#d38d5f;fill-opacity:1"
     inkscape:connector-curvature="0" />
  <path
     d="m 701.84615,861.32145 53.94634,71.0512 128.9449,96.05075 c 0,0 93.41926,19.7365 72.367,34.2099 -21.05226,14.4734 -81.57738,-13.1577 -81.57738,-13.1577 0,0 -130.26064,-69.73545 -157.8917,-98.68225 -27.63106,-28.9468 -78.94585,-77.6301 -78.94585,-77.6301 z"
     id="path36"
     style="fill:#d38d5f;fill-opacity:1"
     inkscape:connector-curvature="0" />
  <path
     d="m 629.47912,971.84565 15.78919,24.9995 94.2313,-29.6458 c 20.67581,-6.5048 43.34783,-4.1113 61.68676,7.4423 16.44706,10.3616 26.97317,26.80855 3.28941,51.15025 -47.36751,48.6833 -78.94585,22.368 -78.94585,22.368 0,0 -159.2075,74.9985 -185.52278,38.1571 -26.31528,-36.8414 -27.631,-55.2621 -27.631,-55.2621 0,0 101.3138,-63.15655 117.10297,-59.20925 z"
     id="path38"
     inkscape:connector-curvature="0"
     style="fill:#2f2e41" />
  <path
     d="m 826.84376,1058.686 c 0,0 42.10445,27.631 -7.89459,40.7887 -49.99904,13.1576 -86.84044,-5.2631 -86.84044,-5.2631 0,0 -43.42022,0 -43.42022,-22.368 0,-22.368 14.47341,-24.9995 14.47341,-24.9995 l 44.736,6.5788 c 0,0 53.94632,-14.4734 78.94584,5.2631 z"
     id="path40"
     inkscape:connector-curvature="0"
     style="fill:#d0cde1" />
  <path
     d="m 596.49001,749.16105 a 15.61579,15.61579 0 0 1 8.128,0.021 c 8.44618,2.2675 27.38021,8.2704 31.43989,17.4046 5.26306,11.8419 23.68376,30.2626 23.68376,30.2626 0,0 24.99952,24.9995 19.73646,42.1045 -5.26306,17.1049 -24.99952,36.8414 -24.99952,36.8414 0,0 5.26306,81.5774 -21.05223,102.6296 -26.31529,21.0522 -36.8414,6.5788 -36.8414,26.31525 0,19.7364 -81.57734,81.5774 -97.36652,43.4202 0,0 7.89459,-71.05125 5.26306,-96.05075 -2.59358,-24.639 1.20328,-178.3648 92.0085,-202.9481 z"
     id="path44"
     inkscape:connector-curvature="0"
     style="fill:#fbffff;fill-opacity:1" />
  <path
     d="m 638.68947,782.37555 c 0,0 80.26162,59.2094 65.78821,84.2089 0,0 -48.68328,23.6838 -59.20939,22.368 -10.52611,-1.3157 -51.31481,-47.3675 -61.84092,-51.3148 -10.52611,-3.9473 -15.78917,-74.9986 55.2621,-55.2621 z"
     id="path46"
     inkscape:connector-curvature="0"
     style="fill:#ffffff;fill-opacity:1" />
  <path
     style="fill:#d38d5f;fill-opacity:1"
     d="m 729.64599,638.03757 c -30.23106,-12.46522 -64.84325,1.93657 -77.30888,32.16745 -3.59832,8.74235 -4.20094,15.10825 -4.23646,27.63798 0.9602,27.28321 10.72879,53.17877 35.89988,63.59459 30.23106,12.46521 64.84325,-1.93657 77.30888,-32.16746 3.55953,-8.68525 4.08831,-15.87345 6.8006,-26.37786 4.18656,-26.99218 -13.22373,-54.41281 -38.46402,-64.8547 z"
     id="circle32"
     inkscape:connector-curvature="0"
     sodipodi:nodetypes="ccccccc" />
  <path
     style="fill:#000000;fill-opacity:0.12292361;stroke:none;stroke-width:1.96682072px;stroke-linecap:butt;stroke-linejoin:miter;stroke-opacity:1"
     d="m 691.12476,687.71372 8.34159,-3.04438 7.2005,4.40993 1.01849,6.90391 -17.13348,68.25521 13.26248,2.44264 18.19282,-3.00869 16.94005,-7.05931 7.20349,-6.46967 -33.27882,-32.35118 4.80394,-33.5392 22.22902,-11.72683 7.05521,-23.6023 -7.17385,-6.02907 -10.14021,-4.85721 -10.70322,-3.29807 -12.51545,-0.99097 c 0,0 -9.9693,-0.85893 -14.24564,1.70041 -8.91515,2.49781 -20.05775,8.56782 -19.99037,8.54432 l -14.46925,15.0154 -7.16793,12.69661 -1.6509,13.72805 -1.6061,10.14434 2.88426,14.87766 8.005,4.02122 17.53045,-5.01899 8.88929,-12.18424 z"
     id="path944"
     inkscape:connector-curvature="0"
     sodipodi:nodetypes="cccccccccccccccccccccccccccc" />
  <g
     id="g977"
     transform="matrix(1.0827855,0.44647541,-0.4412669,1.0701539,653.02771,243.83666)">
    <path
       sodipodi:nodetypes="sccsacaas"
       inkscape:connector-curvature="0"
       id="rect946"
       d="m 181.08246,339.41798 c 13.51534,-3.87749 41.76357,-10.2891 41.76357,-10.2891 l 1.04077,4.68327 c 0,0 -26.2602,5.04505 -39.18666,8.7084 -2.95536,0.83754 -5.6442,3.00329 -7.35114,5.55709 -1.44255,2.15824 -1.96369,7.53624 -1.96369,7.53624 0,0 -0.81977,-3.174 -0.80539,-4.79451 0.0172,-1.84996 0.18721,-3.8024 1.01632,-5.45624 1.20853,-2.41059 2.89421,-5.20151 5.48622,-5.94515 z"
       style="opacity:1;fill:#1a1a1a;fill-opacity:1;stroke:none;stroke-width:15.63180828;stroke-miterlimit:4;stroke-dasharray:none;stroke-opacity:1" />
    <rect
       ry="3.7069626"
       transform="matrix(0.91497158,-0.40351828,0,1,0,0)"
       y="425.14896"
       x="244.51176"
       height="23.400555"
       width="15.49178"
       id="rect964"
       style="opacity:1;fill:none;fill-opacity:1;stroke:#1a1a1a;stroke-width:2.54745245;stroke-miterlimit:4;stroke-dasharray:none;stroke-opacity:1" />
  </g>
  <path
     style="opacity:1;fill:#0c3f6a;fill-opacity:1;stroke:none;stroke-width:0.65384358;stroke-miterlimit:4;stroke-dasharray:none;stroke-opacity:1"
     inkscape:transform-center-x="-2.8515171e-06"
     inkscape:transform-center-y="-52.38072"
     d="M 932.87006,521.64118 H 751.41793 569.96579 L 750.35807,364.49902 931.6942,207.35686 l 1.05986,157.14216 z"
     id="path999"
     inkscape:connector-curvature="0"
     sodipodi:nodetypes="ccccccc" />
  <path
     style="opacity:1;fill:#31a8ae;fill-opacity:1;stroke:none;stroke-width:0.2960403;stroke-miterlimit:4;stroke-dasharray:none;stroke-opacity:1"
     inkscape:transform-center-x="15.339826"
     inkscape:transform-center-y="-35.717909"
     d="m 460.2476,387.16972 47.65883,57.0354 62.05936,75.43606 -108.3196,0.22416 -108.64239,-0.0559 46.26021,-58.05958 z"
     id="path999-6"
     inkscape:connector-curvature="0"
     sodipodi:nodetypes="ccccccc" />
  <path
     style="opacity:1;fill:#98e2d5;fill-opacity:1;stroke:none;stroke-width:0.8206352;stroke-miterlimit:4;stroke-dasharray:none;stroke-opacity:1"
     inkscape:transform-center-x="1.2116591e-05"
     inkscape:transform-center-y="76.642762"
     d="m 929.30948,-59.296982 h 195.35072 195.3507 L 1125.8012,170.63128 930.57541,400.55956 929.43437,170.63131 Z"
     id="path999-7"
     inkscape:connector-curvature="0"
     sodipodi:nodetypes="ccccccc" />
  <path
     style="opacity:1;fill:#036a93;fill-opacity:1;stroke:none;stroke-width:1.85545373;stroke-miterlimit:4;stroke-dasharray:none;stroke-opacity:1"
     d="M 530.46583,-260.17712 927.62249,211.23048 569.9658,522.04127 172.80914,50.633666 Z"
     id="rect986-5"
     inkscape:connector-curvature="0" />
  <rect
     style="opacity:1;fill:#036a93;fill-opacity:1;stroke:none;stroke-width:1.84116018;stroke-miterlimit:4;stroke-dasharray:none;stroke-opacity:1"
     id="rect986-3"
     width="610.96283"
     height="470.66766"
     x="600.09003"
     y="1180.0371" />
  <path
     style="opacity:1;fill:#31a8ae;fill-opacity:1;stroke:none;stroke-width:0.76915646;stroke-miterlimit:4;stroke-dasharray:none;stroke-opacity:1"
     inkscape:transform-center-x="61.618666"
     inkscape:transform-center-y="-6.5697429e-06"
     d="M 933.22271,-208.47588 V 4.9774376 218.43075 L 748.36672,6.2242176 563.51072,-207.09264 748.3667,-208.33942 Z"
     id="path999-7-5"
     inkscape:connector-curvature="0"
     sodipodi:nodetypes="ccccccc" />
  <path
     style="opacity:1;fill:#0c3f6a;fill-opacity:1;stroke:none;stroke-width:1.26354897;stroke-miterlimit:4;stroke-dasharray:none;stroke-opacity:1"
     inkscape:transform-center-x="35.115243"
     inkscape:transform-center-y="45.825743"
     d="m 321.90723,990.30885 280.18281,189.72795 v 470.6677 l -280.18281,-189.728 z"
     id="rect986-3-2"
     inkscape:connector-curvature="0"
     sodipodi:nodetypes="ccccc" />
  <rect
     style="opacity:1;fill:#31a8ae;fill-opacity:1;stroke:none;stroke-width:1.41832113;stroke-miterlimit:4;stroke-dasharray:none;stroke-opacity:1"
     id="rect904-6"
     width="609.34625"
     height="350.62518"
     x="-1786.382"
     y="1878.3035"
     transform="matrix(1,2.9967556e-8,0.79909487,0.60120494,0,0)" />
  <rect
     style="opacity:1;fill:#036a93;fill-opacity:1;stroke:none;stroke-width:1.84116018;stroke-miterlimit:4;stroke-dasharray:none;stroke-opacity:1"
     id="rect986-3-9"
     width="610.96283"
     height="470.66766"
     x="-6.8728628"
     y="1340.043" />
  <path
     style="opacity:1;fill:#0c3f6a;fill-opacity:1;stroke:none;stroke-width:0.65384358;stroke-miterlimit:4;stroke-dasharray:none;stroke-opacity:1"
     inkscape:transform-center-x="78.861785"
     inkscape:transform-center-y="33.859729"
     d="M 84.753206,533.3146 203.58586,396.18812 322.41852,259.06161 323.035,498.29926 323.033,738.25035 203.58387,636.13925 Z"
     id="path999-2"
     inkscape:connector-curvature="0"
     sodipodi:nodetypes="ccccccc" />
  <path
     style="opacity:1;fill:#31a8ae;fill-opacity:1;stroke:none;stroke-width:0.22526006;stroke-miterlimit:4;stroke-dasharray:none;stroke-opacity:1"
     inkscape:transform-center-x="-20.782533"
     inkscape:transform-center-y="-14.637362"
     d="m 280.72773,816.19425 -51.1094,35.9964 -51.10942,35.9964 19.63708,-80.0482 19.90306,-80.2354 31.47233,44.0518 z"
     id="path999-2-7"
     inkscape:connector-curvature="0"
     sodipodi:nodetypes="ccccccc" />
  <path
     style="opacity:1;fill:#f3f0cd;fill-opacity:1;stroke:none;stroke-width:0.11450338;stroke-miterlimit:4;stroke-dasharray:none;stroke-opacity:1"
     inkscape:transform-center-x="-2.7453989"
     inkscape:transform-center-y="3.8618779"
     d="m 197.59749,1005.2872 -24.54115,-14.15575 -24.54116,-14.1558 32.87254,-16.6712 33.00022,-16.5975 -8.33139,30.827 z"
     id="path999-2-7-0"
     inkscape:connector-curvature="0"
     sodipodi:nodetypes="ccccccc" />
</svg>
